<mxfile host="65bd71144e" pages="2">
    <diagram id="wNwIsnwx6dZK5Y0W4xiQ" name="Page-1">
        <mxGraphModel dx="1187" dy="562" grid="1" gridSize="10" guides="1" tooltips="1" connect="1" arrows="1" fold="1" page="1" pageScale="1" pageWidth="850" pageHeight="1100" math="0" shadow="0">
            <root>
                <mxCell id="0"/>
                <mxCell id="1" parent="0"/>
                <mxCell id="fX6u41M_sWUUBflT7h68-32" style="edgeStyle=orthogonalEdgeStyle;rounded=0;orthogonalLoop=1;jettySize=auto;html=1;fontFamily=Courier New;" parent="1" source="fX6u41M_sWUUBflT7h68-5" target="fX6u41M_sWUUBflT7h68-2" edge="1">
                    <mxGeometry relative="1" as="geometry"/>
                </mxCell>
                <mxCell id="fX6u41M_sWUUBflT7h68-34" style="edgeStyle=orthogonalEdgeStyle;rounded=0;orthogonalLoop=1;jettySize=auto;html=1;entryX=1;entryY=0.5;entryDx=0;entryDy=0;fontFamily=Courier New;" parent="1" source="fX6u41M_sWUUBflT7h68-5" target="fX6u41M_sWUUBflT7h68-3" edge="1">
                    <mxGeometry relative="1" as="geometry"/>
                </mxCell>
                <mxCell id="fX6u41M_sWUUBflT7h68-35" style="edgeStyle=orthogonalEdgeStyle;rounded=0;orthogonalLoop=1;jettySize=auto;html=1;entryX=1;entryY=0.5;entryDx=0;entryDy=0;fontFamily=Courier New;" parent="1" source="fX6u41M_sWUUBflT7h68-5" target="fX6u41M_sWUUBflT7h68-4" edge="1">
                    <mxGeometry relative="1" as="geometry"/>
                </mxCell>
                <mxCell id="fX6u41M_sWUUBflT7h68-36" style="edgeStyle=orthogonalEdgeStyle;rounded=0;orthogonalLoop=1;jettySize=auto;html=1;entryX=1;entryY=0.5;entryDx=0;entryDy=0;fontFamily=Courier New;" parent="1" source="fX6u41M_sWUUBflT7h68-5" target="fX6u41M_sWUUBflT7h68-14" edge="1">
                    <mxGeometry relative="1" as="geometry"/>
                </mxCell>
                <mxCell id="fX6u41M_sWUUBflT7h68-5" value="cltkfs.ko" style="rounded=0;whiteSpace=wrap;html=1;align=left;fillColor=#dae8fc;strokeColor=#6c8ebf;" parent="1" vertex="1">
                    <mxGeometry x="1310" y="130" width="180" height="840" as="geometry"/>
                </mxCell>
                <mxCell id="fX6u41M_sWUUBflT7h68-1" value="trace memory" style="rounded=0;whiteSpace=wrap;html=1;verticalAlign=top;fillColor=#f5f5f5;strokeColor=#666666;fontColor=#333333;" parent="1" vertex="1">
                    <mxGeometry x="1020" y="250" width="130" height="600" as="geometry"/>
                </mxCell>
                <mxCell id="g3vJlwdJ9GDVGhm7NoB1-6" style="edgeStyle=orthogonalEdgeStyle;rounded=0;orthogonalLoop=1;jettySize=auto;html=1;fontSize=12;entryX=0;entryY=0.333;entryDx=0;entryDy=0;entryPerimeter=0;" parent="1" source="fX6u41M_sWUUBflT7h68-2" target="g3vJlwdJ9GDVGhm7NoB1-1" edge="1">
                    <mxGeometry relative="1" as="geometry">
                        <mxPoint x="1000" y="470" as="targetPoint"/>
                        <Array as="points">
                            <mxPoint x="970" y="445"/>
                            <mxPoint x="970" y="470"/>
                        </Array>
                    </mxGeometry>
                </mxCell>
                <mxCell id="fX6u41M_sWUUBflT7h68-2" value="&lt;b&gt;tracebuffer_a_head&lt;/b&gt;" style="rounded=0;whiteSpace=wrap;html=1;fillColor=#f5f5f5;strokeColor=#666666;fontColor=#333333;" parent="1" vertex="1">
                    <mxGeometry x="1020" y="430" width="130" height="30" as="geometry"/>
                </mxCell>
                <mxCell id="g3vJlwdJ9GDVGhm7NoB1-8" style="edgeStyle=orthogonalEdgeStyle;rounded=0;orthogonalLoop=1;jettySize=auto;html=1;fontSize=12;entryX=-0.012;entryY=0.334;entryDx=0;entryDy=0;entryPerimeter=0;" parent="1" source="fX6u41M_sWUUBflT7h68-3" target="g3vJlwdJ9GDVGhm7NoB1-2" edge="1">
                    <mxGeometry relative="1" as="geometry">
                        <mxPoint x="1000" y="530" as="targetPoint"/>
                        <Array as="points">
                            <mxPoint x="990" y="505"/>
                            <mxPoint x="990" y="530"/>
                        </Array>
                    </mxGeometry>
                </mxCell>
                <mxCell id="fX6u41M_sWUUBflT7h68-3" value="&lt;b&gt;tracebuffer_b_head&lt;/b&gt;" style="rounded=0;whiteSpace=wrap;html=1;fillColor=#f5f5f5;strokeColor=#666666;fontColor=#333333;" parent="1" vertex="1">
                    <mxGeometry x="1020" y="490" width="130" height="30" as="geometry"/>
                </mxCell>
                <mxCell id="fX6u41M_sWUUBflT7h68-4" value="&lt;b&gt;tracebuffer_c_head&lt;/b&gt;" style="rounded=0;whiteSpace=wrap;html=1;fillColor=#f5f5f5;strokeColor=#666666;fontColor=#333333;" parent="1" vertex="1">
                    <mxGeometry x="1020" y="550" width="130" height="30" as="geometry"/>
                </mxCell>
                <mxCell id="g3vJlwdJ9GDVGhm7NoB1-9" style="edgeStyle=orthogonalEdgeStyle;rounded=0;orthogonalLoop=1;jettySize=auto;html=1;fontSize=12;entryX=0;entryY=0.333;entryDx=0;entryDy=0;entryPerimeter=0;" parent="1" source="fX6u41M_sWUUBflT7h68-14" target="g3vJlwdJ9GDVGhm7NoB1-3" edge="1">
                    <mxGeometry relative="1" as="geometry">
                        <mxPoint x="1000" y="730" as="targetPoint"/>
                        <Array as="points">
                            <mxPoint x="990" y="705"/>
                            <mxPoint x="990" y="730"/>
                        </Array>
                    </mxGeometry>
                </mxCell>
                <mxCell id="fEPmhw41nx3GZ4IBhSuT-3" style="edgeStyle=orthogonalEdgeStyle;rounded=0;orthogonalLoop=1;jettySize=auto;html=1;entryX=0;entryY=0.5;entryDx=0;entryDy=0;fontSize=12;" parent="1" source="fX6u41M_sWUUBflT7h68-14" target="fEPmhw41nx3GZ4IBhSuT-1" edge="1">
                    <mxGeometry relative="1" as="geometry">
                        <Array as="points">
                            <mxPoint x="990" y="705"/>
                            <mxPoint x="990" y="765"/>
                        </Array>
                    </mxGeometry>
                </mxCell>
                <mxCell id="fEPmhw41nx3GZ4IBhSuT-4" style="edgeStyle=orthogonalEdgeStyle;rounded=0;orthogonalLoop=1;jettySize=auto;html=1;fontSize=12;" parent="1" source="fX6u41M_sWUUBflT7h68-14" target="fEPmhw41nx3GZ4IBhSuT-2" edge="1">
                    <mxGeometry relative="1" as="geometry">
                        <mxPoint x="1000" y="800" as="targetPoint"/>
                        <Array as="points">
                            <mxPoint x="990" y="705"/>
                            <mxPoint x="990" y="800"/>
                        </Array>
                    </mxGeometry>
                </mxCell>
                <mxCell id="fX6u41M_sWUUBflT7h68-14" value="&lt;b&gt;tracebuffer_x_head&lt;/b&gt;" style="rounded=0;whiteSpace=wrap;html=1;fillColor=#f5f5f5;strokeColor=#666666;fontColor=#333333;" parent="1" vertex="1">
                    <mxGeometry x="1020" y="690" width="130" height="30" as="geometry"/>
                </mxCell>
                <mxCell id="fX6u41M_sWUUBflT7h68-20" value="lookup" style="rounded=0;whiteSpace=wrap;html=1;fillColor=#dae8fc;strokeColor=#6c8ebf;" parent="1" vertex="1">
                    <mxGeometry x="1490" y="410" width="120" height="60" as="geometry"/>
                </mxCell>
                <mxCell id="fX6u41M_sWUUBflT7h68-21" value="mkdir" style="rounded=0;whiteSpace=wrap;html=1;fillColor=#dae8fc;strokeColor=#6c8ebf;" parent="1" vertex="1">
                    <mxGeometry x="1490" y="470" width="120" height="60" as="geometry"/>
                </mxCell>
                <mxCell id="fX6u41M_sWUUBflT7h68-22" value="create" style="rounded=0;whiteSpace=wrap;html=1;fillColor=#dae8fc;strokeColor=#6c8ebf;" parent="1" vertex="1">
                    <mxGeometry x="1490" y="530" width="120" height="60" as="geometry"/>
                </mxCell>
                <mxCell id="fX6u41M_sWUUBflT7h68-23" value="truncate" style="rounded=0;whiteSpace=wrap;html=1;fillColor=#dae8fc;strokeColor=#6c8ebf;" parent="1" vertex="1">
                    <mxGeometry x="1490" y="590" width="120" height="60" as="geometry"/>
                </mxCell>
                <mxCell id="fX6u41M_sWUUBflT7h68-24" value="mmap" style="rounded=0;whiteSpace=wrap;html=1;fillColor=#dae8fc;strokeColor=#6c8ebf;" parent="1" vertex="1">
                    <mxGeometry x="1490" y="650" width="120" height="60" as="geometry"/>
                </mxCell>
                <mxCell id="fX6u41M_sWUUBflT7h68-26" style="edgeStyle=orthogonalEdgeStyle;rounded=0;orthogonalLoop=1;jettySize=auto;html=1;entryX=0.5;entryY=0;entryDx=0;entryDy=0;fontFamily=Courier New;" parent="1" source="fX6u41M_sWUUBflT7h68-25" target="fX6u41M_sWUUBflT7h68-1" edge="1">
                    <mxGeometry relative="1" as="geometry"/>
                </mxCell>
                <mxCell id="fX6u41M_sWUUBflT7h68-25" value="init() {&lt;br&gt;&amp;nbsp; ...&lt;br&gt;&amp;nbsp; kmalloc();&lt;br&gt;&amp;nbsp; initMem();&lt;br&gt;&amp;nbsp; ..&lt;br&gt;}" style="rounded=0;whiteSpace=wrap;html=1;align=left;verticalAlign=top;fontFamily=Courier New;fillColor=#d5e8d4;strokeColor=#82b366;" parent="1" vertex="1">
                    <mxGeometry x="1340" y="150" width="120" height="100" as="geometry"/>
                </mxCell>
                <mxCell id="fX6u41M_sWUUBflT7h68-16" value="VFS" style="rounded=0;whiteSpace=wrap;html=1;fillColor=#dae8fc;strokeColor=#6c8ebf;" parent="1" vertex="1">
                    <mxGeometry x="1410" y="410" width="80" height="360" as="geometry"/>
                </mxCell>
                <mxCell id="HyTvlnaDldUONpv5YMLq-2" style="edgeStyle=orthogonalEdgeStyle;rounded=0;orthogonalLoop=1;jettySize=auto;html=1;" parent="1" source="fX6u41M_sWUUBflT7h68-37" target="fX6u41M_sWUUBflT7h68-1" edge="1">
                    <mxGeometry relative="1" as="geometry">
                        <Array as="points">
                            <mxPoint x="1090" y="880"/>
                        </Array>
                    </mxGeometry>
                </mxCell>
                <mxCell id="fX6u41M_sWUUBflT7h68-37" value="crashInit() {&lt;br&gt;&amp;nbsp; ...&lt;br&gt;&amp;nbsp; memremap();&lt;br&gt;&amp;nbsp; reinitMem();&lt;br&gt;&amp;nbsp; ..&lt;br&gt;}" style="rounded=0;whiteSpace=wrap;html=1;align=left;verticalAlign=top;fontFamily=Courier New;fillColor=#f8cecc;strokeColor=#b85450;" parent="1" vertex="1">
                    <mxGeometry x="1340" y="850" width="120" height="100" as="geometry"/>
                </mxCell>
                <mxCell id="fX6u41M_sWUUBflT7h68-38" value="/sys/m/&lt;br&gt;cltkfs/start" style="rounded=0;whiteSpace=wrap;html=1;fontFamily=Courier New;align=left;fillColor=#d5e8d4;strokeColor=#82b366;" parent="1" vertex="1">
                    <mxGeometry x="1490" y="260" width="120" height="60" as="geometry"/>
                </mxCell>
                <mxCell id="fX6u41M_sWUUBflT7h68-40" value="modprobe cltkfs -o rescu_mode,startsize=0x823455,size=8M" style="rounded=0;whiteSpace=wrap;html=1;fontFamily=Courier New;align=left;fillColor=#f8cecc;strokeColor=#b85450;" parent="1" vertex="1">
                    <mxGeometry x="1490" y="910" width="410" height="60" as="geometry"/>
                </mxCell>
                <mxCell id="fX6u41M_sWUUBflT7h68-41" value="cat ...&lt;span style=&quot;text-align: left;&quot;&gt;&amp;nbsp;&amp;gt;&amp;gt; /dev/bootvars&lt;/span&gt;" style="rounded=0;whiteSpace=wrap;html=1;fontFamily=Courier New;fillColor=#d5e8d4;strokeColor=#82b366;" parent="1" vertex="1">
                    <mxGeometry x="1610" y="260" width="220" height="60" as="geometry"/>
                </mxCell>
                <mxCell id="HyTvlnaDldUONpv5YMLq-1" value="modprobe cltkfs -o size=8M" style="rounded=0;whiteSpace=wrap;html=1;fontFamily=Courier New;align=left;fillColor=#d5e8d4;strokeColor=#82b366;" parent="1" vertex="1">
                    <mxGeometry x="1610" y="200" width="220" height="60" as="geometry"/>
                </mxCell>
                <mxCell id="HyTvlnaDldUONpv5YMLq-4" value="/sys/m/&lt;br&gt;cltkfs/size" style="rounded=0;whiteSpace=wrap;html=1;fontFamily=Courier New;align=left;fillColor=#d5e8d4;strokeColor=#82b366;" parent="1" vertex="1">
                    <mxGeometry x="1490" y="320" width="120" height="60" as="geometry"/>
                </mxCell>
                <mxCell id="HyTvlnaDldUONpv5YMLq-6" value="cat ...&lt;span style=&quot;text-align: left;&quot;&gt;&amp;nbsp;&amp;gt;&amp;gt; /dev/bootvars&lt;/span&gt;" style="rounded=0;whiteSpace=wrap;html=1;fontFamily=Courier New;fillColor=#d5e8d4;strokeColor=#82b366;" parent="1" vertex="1">
                    <mxGeometry x="1610" y="320" width="220" height="60" as="geometry"/>
                </mxCell>
                <mxCell id="HyTvlnaDldUONpv5YMLq-10" value="cat &lt;span style=&quot;text-align: left;&quot;&gt;/dev/bootvars | grep CLTK_START&lt;/span&gt;" style="rounded=0;whiteSpace=wrap;html=1;fontFamily=Courier New;fillColor=#f8cecc;strokeColor=#b85450;" parent="1" vertex="1">
                    <mxGeometry x="1490" y="790" width="220" height="60" as="geometry"/>
                </mxCell>
                <mxCell id="HyTvlnaDldUONpv5YMLq-12" value="cat&amp;nbsp;&lt;span style=&quot;border-color: var(--border-color); text-align: left;&quot;&gt;/dev/bootvars | grep CLTK_SIZE&lt;/span&gt;" style="rounded=0;whiteSpace=wrap;html=1;fontFamily=Courier New;fillColor=#f8cecc;strokeColor=#b85450;" parent="1" vertex="1">
                    <mxGeometry x="1490" y="850" width="220" height="60" as="geometry"/>
                </mxCell>
                <mxCell id="HyTvlnaDldUONpv5YMLq-14" value="NORMAL BOOT" style="rounded=0;whiteSpace=wrap;html=1;fontFamily=Courier New;align=center;fillColor=#d5e8d4;strokeColor=#82b366;" parent="1" vertex="1">
                    <mxGeometry x="740" y="500" width="220" height="60" as="geometry"/>
                </mxCell>
                <mxCell id="HyTvlnaDldUONpv5YMLq-15" value="DUMP CASE" style="rounded=0;whiteSpace=wrap;html=1;fontFamily=Courier New;fillColor=#f8cecc;strokeColor=#b85450;" parent="1" vertex="1">
                    <mxGeometry x="740" y="560" width="220" height="60" as="geometry"/>
                </mxCell>
                <mxCell id="HyTvlnaDldUONpv5YMLq-18" style="edgeStyle=orthogonalEdgeStyle;rounded=0;orthogonalLoop=1;jettySize=auto;html=1;fontSize=12;entryX=1;entryY=0.5;entryDx=0;entryDy=0;" parent="1" source="HyTvlnaDldUONpv5YMLq-16" target="fX6u41M_sWUUBflT7h68-20" edge="1">
                    <mxGeometry relative="1" as="geometry">
                        <mxPoint x="1760" y="540" as="targetPoint"/>
                    </mxGeometry>
                </mxCell>
                <mxCell id="HyTvlnaDldUONpv5YMLq-19" style="edgeStyle=orthogonalEdgeStyle;rounded=0;orthogonalLoop=1;jettySize=auto;html=1;entryX=1;entryY=0.5;entryDx=0;entryDy=0;fontSize=12;" parent="1" source="HyTvlnaDldUONpv5YMLq-16" target="fX6u41M_sWUUBflT7h68-21" edge="1">
                    <mxGeometry relative="1" as="geometry"/>
                </mxCell>
                <mxCell id="HyTvlnaDldUONpv5YMLq-20" style="edgeStyle=orthogonalEdgeStyle;rounded=0;orthogonalLoop=1;jettySize=auto;html=1;entryX=1;entryY=0.5;entryDx=0;entryDy=0;fontSize=12;" parent="1" source="HyTvlnaDldUONpv5YMLq-16" target="fX6u41M_sWUUBflT7h68-22" edge="1">
                    <mxGeometry relative="1" as="geometry"/>
                </mxCell>
                <mxCell id="HyTvlnaDldUONpv5YMLq-21" style="edgeStyle=orthogonalEdgeStyle;rounded=0;orthogonalLoop=1;jettySize=auto;html=1;entryX=1;entryY=0.5;entryDx=0;entryDy=0;fontSize=12;" parent="1" source="HyTvlnaDldUONpv5YMLq-16" target="fX6u41M_sWUUBflT7h68-23" edge="1">
                    <mxGeometry relative="1" as="geometry"/>
                </mxCell>
                <mxCell id="HyTvlnaDldUONpv5YMLq-22" style="edgeStyle=orthogonalEdgeStyle;rounded=0;orthogonalLoop=1;jettySize=auto;html=1;entryX=1;entryY=0.5;entryDx=0;entryDy=0;fontSize=12;" parent="1" source="HyTvlnaDldUONpv5YMLq-16" target="fX6u41M_sWUUBflT7h68-24" edge="1">
                    <mxGeometry relative="1" as="geometry"/>
                </mxCell>
                <mxCell id="nLQN9DRmhh8fB6egESdy-2" style="edgeStyle=orthogonalEdgeStyle;rounded=0;orthogonalLoop=1;jettySize=auto;html=1;entryX=1;entryY=0.5;entryDx=0;entryDy=0;fontSize=12;" parent="1" source="HyTvlnaDldUONpv5YMLq-16" target="nLQN9DRmhh8fB6egESdy-1" edge="1">
                    <mxGeometry relative="1" as="geometry"/>
                </mxCell>
                <mxCell id="HyTvlnaDldUONpv5YMLq-16" value="&lt;font style=&quot;font-size: 12px;&quot;&gt;libcltk&lt;/font&gt;" style="rounded=0;whiteSpace=wrap;html=1;strokeWidth=1;fontSize=10;fillColor=#fff2cc;strokeColor=#d6b656;" parent="1" vertex="1">
                    <mxGeometry x="1730" y="530" width="120" height="60" as="geometry"/>
                </mxCell>
                <mxCell id="HyTvlnaDldUONpv5YMLq-23" style="edgeStyle=orthogonalEdgeStyle;rounded=0;orthogonalLoop=1;jettySize=auto;html=1;entryX=1;entryY=0.5;entryDx=0;entryDy=0;fontSize=12;fillColor=#fff2cc;strokeColor=#d6b656;" parent="1" source="HyTvlnaDldUONpv5YMLq-17" target="HyTvlnaDldUONpv5YMLq-16" edge="1">
                    <mxGeometry relative="1" as="geometry"/>
                </mxCell>
                <mxCell id="HyTvlnaDldUONpv5YMLq-17" value="&lt;font style=&quot;font-size: 12px;&quot;&gt;appl&lt;/font&gt;" style="rounded=0;whiteSpace=wrap;html=1;strokeWidth=1;fontSize=10;fillColor=#fff2cc;strokeColor=#d6b656;" parent="1" vertex="1">
                    <mxGeometry x="1900" y="530" width="120" height="60" as="geometry"/>
                </mxCell>
                <mxCell id="HyTvlnaDldUONpv5YMLq-24" value="&lt;font style=&quot;font-size: 12px;&quot;&gt;APPLICATION&lt;/font&gt;" style="rounded=0;whiteSpace=wrap;html=1;strokeWidth=1;fontSize=10;fillColor=#fff2cc;strokeColor=#d6b656;" parent="1" vertex="1">
                    <mxGeometry x="740" y="620" width="220" height="60" as="geometry"/>
                </mxCell>
                <mxCell id="nLQN9DRmhh8fB6egESdy-1" value="..." style="rounded=0;whiteSpace=wrap;html=1;fillColor=#dae8fc;strokeColor=#6c8ebf;" parent="1" vertex="1">
                    <mxGeometry x="1490" y="710" width="120" height="60" as="geometry"/>
                </mxCell>
                <mxCell id="97iM8sRTHah3JgrFjM1g-1" value="CLTKFS" style="rounded=0;whiteSpace=wrap;html=1;fillColor=#dae8fc;strokeColor=#6c8ebf;" parent="1" vertex="1">
                    <mxGeometry x="740" y="680" width="220" height="60" as="geometry"/>
                </mxCell>
                <mxCell id="g3vJlwdJ9GDVGhm7NoB1-7" style="edgeStyle=orthogonalEdgeStyle;rounded=0;orthogonalLoop=1;jettySize=auto;html=1;entryX=0;entryY=0.5;entryDx=0;entryDy=0;fontSize=12;exitX=0;exitY=0.5;exitDx=0;exitDy=0;" parent="1" source="fX6u41M_sWUUBflT7h68-2" target="g3vJlwdJ9GDVGhm7NoB1-4" edge="1">
                    <mxGeometry relative="1" as="geometry">
                        <Array as="points">
                            <mxPoint x="970" y="445"/>
                            <mxPoint x="970" y="595"/>
                        </Array>
                    </mxGeometry>
                </mxCell>
                <mxCell id="g3vJlwdJ9GDVGhm7NoB1-1" value="tracebuffer_a_boddy_1" style="rounded=0;whiteSpace=wrap;html=1;fillColor=#f5f5f5;strokeColor=#666666;fontColor=#333333;" parent="1" vertex="1">
                    <mxGeometry x="1020" y="460" width="130" height="30" as="geometry"/>
                </mxCell>
                <mxCell id="g3vJlwdJ9GDVGhm7NoB1-2" value="tracebuffer_b_boddy_1" style="rounded=0;whiteSpace=wrap;html=1;fillColor=#f5f5f5;strokeColor=#666666;fontColor=#333333;" parent="1" vertex="1">
                    <mxGeometry x="1020" y="520" width="130" height="30" as="geometry"/>
                </mxCell>
                <mxCell id="g3vJlwdJ9GDVGhm7NoB1-3" value="tracebuffer_x_boddy_1" style="rounded=0;whiteSpace=wrap;html=1;fillColor=#f5f5f5;strokeColor=#666666;fontColor=#333333;" parent="1" vertex="1">
                    <mxGeometry x="1020" y="720" width="130" height="30" as="geometry"/>
                </mxCell>
                <mxCell id="g3vJlwdJ9GDVGhm7NoB1-4" value="tracebuffer_a_boddy_2" style="rounded=0;whiteSpace=wrap;html=1;fillColor=#f5f5f5;strokeColor=#666666;fontColor=#333333;" parent="1" vertex="1">
                    <mxGeometry x="1020" y="580" width="130" height="30" as="geometry"/>
                </mxCell>
                <mxCell id="fEPmhw41nx3GZ4IBhSuT-1" value="tracebuffer_x_boddy_2" style="rounded=0;whiteSpace=wrap;html=1;fillColor=#f5f5f5;strokeColor=#666666;fontColor=#333333;" parent="1" vertex="1">
                    <mxGeometry x="1020" y="750" width="130" height="30" as="geometry"/>
                </mxCell>
                <mxCell id="fEPmhw41nx3GZ4IBhSuT-2" value="tracebuffer_x_boddy_3" style="rounded=0;whiteSpace=wrap;html=1;fillColor=#f5f5f5;strokeColor=#666666;fontColor=#333333;" parent="1" vertex="1">
                    <mxGeometry x="1020" y="780" width="130" height="30" as="geometry"/>
                </mxCell>
                <mxCell id="2" value="Copyright (c) 2024, International Business Machines&lt;br style=&quot;font-size: 10px;&quot;&gt;SPDX-License-Identifier: BSD-2-Clause-Patent" style="rounded=1;whiteSpace=wrap;html=1;fontSize=10;fontColor=default;fillColor=none;strokeColor=none;" vertex="1" parent="1">
                    <mxGeometry x="1035" y="950" width="240" height="20" as="geometry"/>
                </mxCell>
            </root>
        </mxGraphModel>
    </diagram>
    <diagram id="sPCpC5W1D95Or_cRqwxw" name="Page-2">
        <mxGraphModel dx="584" dy="839" grid="1" gridSize="10" guides="1" tooltips="1" connect="1" arrows="1" fold="1" page="1" pageScale="1" pageWidth="850" pageHeight="1100" math="0" shadow="0">
            <root>
                <mxCell id="0"/>
                <mxCell id="1" parent="0"/>
                <mxCell id="3AsRj3uWKRMm-9bM_vsM-1" value="lookup" style="rounded=0;whiteSpace=wrap;html=1;fillColor=#dae8fc;strokeColor=#6c8ebf;" vertex="1" parent="1">
                    <mxGeometry x="1500" y="280" width="120" height="60" as="geometry"/>
                </mxCell>
                <mxCell id="3AsRj3uWKRMm-9bM_vsM-2" value="mkdir" style="rounded=0;whiteSpace=wrap;html=1;fillColor=#dae8fc;strokeColor=#6c8ebf;" vertex="1" parent="1">
                    <mxGeometry x="1500" y="340" width="120" height="60" as="geometry"/>
                </mxCell>
                <mxCell id="3AsRj3uWKRMm-9bM_vsM-3" value="create" style="rounded=0;whiteSpace=wrap;html=1;fillColor=#dae8fc;strokeColor=#6c8ebf;" vertex="1" parent="1">
                    <mxGeometry x="1500" y="400" width="120" height="60" as="geometry"/>
                </mxCell>
                <mxCell id="3AsRj3uWKRMm-9bM_vsM-4" value="truncate" style="rounded=0;whiteSpace=wrap;html=1;fillColor=#dae8fc;strokeColor=#6c8ebf;" vertex="1" parent="1">
                    <mxGeometry x="1500" y="460" width="120" height="60" as="geometry"/>
                </mxCell>
                <mxCell id="3AsRj3uWKRMm-9bM_vsM-5" value="mmap" style="rounded=0;whiteSpace=wrap;html=1;fillColor=#dae8fc;strokeColor=#6c8ebf;" vertex="1" parent="1">
                    <mxGeometry x="1500" y="520" width="120" height="60" as="geometry"/>
                </mxCell>
                <mxCell id="3AsRj3uWKRMm-9bM_vsM-18" style="edgeStyle=orthogonalEdgeStyle;rounded=0;orthogonalLoop=1;jettySize=auto;html=1;entryX=0.875;entryY=0.5;entryDx=0;entryDy=0;entryPerimeter=0;fontSize=12;" edge="1" parent="1" source="3AsRj3uWKRMm-9bM_vsM-6" target="3AsRj3uWKRMm-9bM_vsM-17">
                    <mxGeometry relative="1" as="geometry"/>
                </mxCell>
                <mxCell id="3AsRj3uWKRMm-9bM_vsM-6" value="VFS" style="rounded=0;whiteSpace=wrap;html=1;fillColor=#dae8fc;strokeColor=#6c8ebf;" vertex="1" parent="1">
                    <mxGeometry x="1420" y="280" width="80" height="360" as="geometry"/>
                </mxCell>
                <mxCell id="3AsRj3uWKRMm-9bM_vsM-7" style="edgeStyle=orthogonalEdgeStyle;rounded=0;orthogonalLoop=1;jettySize=auto;html=1;fontSize=12;entryX=1;entryY=0.5;entryDx=0;entryDy=0;" edge="1" parent="1" source="3AsRj3uWKRMm-9bM_vsM-13" target="3AsRj3uWKRMm-9bM_vsM-1">
                    <mxGeometry relative="1" as="geometry">
                        <mxPoint x="1770" y="410" as="targetPoint"/>
                    </mxGeometry>
                </mxCell>
                <mxCell id="3AsRj3uWKRMm-9bM_vsM-8" style="edgeStyle=orthogonalEdgeStyle;rounded=0;orthogonalLoop=1;jettySize=auto;html=1;entryX=1;entryY=0.5;entryDx=0;entryDy=0;fontSize=12;" edge="1" parent="1" source="3AsRj3uWKRMm-9bM_vsM-13" target="3AsRj3uWKRMm-9bM_vsM-2">
                    <mxGeometry relative="1" as="geometry"/>
                </mxCell>
                <mxCell id="3AsRj3uWKRMm-9bM_vsM-9" style="edgeStyle=orthogonalEdgeStyle;rounded=0;orthogonalLoop=1;jettySize=auto;html=1;entryX=1;entryY=0.5;entryDx=0;entryDy=0;fontSize=12;" edge="1" parent="1" source="3AsRj3uWKRMm-9bM_vsM-13" target="3AsRj3uWKRMm-9bM_vsM-3">
                    <mxGeometry relative="1" as="geometry"/>
                </mxCell>
                <mxCell id="3AsRj3uWKRMm-9bM_vsM-10" style="edgeStyle=orthogonalEdgeStyle;rounded=0;orthogonalLoop=1;jettySize=auto;html=1;entryX=1;entryY=0.5;entryDx=0;entryDy=0;fontSize=12;" edge="1" parent="1" source="3AsRj3uWKRMm-9bM_vsM-13" target="3AsRj3uWKRMm-9bM_vsM-4">
                    <mxGeometry relative="1" as="geometry"/>
                </mxCell>
                <mxCell id="3AsRj3uWKRMm-9bM_vsM-11" style="edgeStyle=orthogonalEdgeStyle;rounded=0;orthogonalLoop=1;jettySize=auto;html=1;entryX=1;entryY=0.5;entryDx=0;entryDy=0;fontSize=12;" edge="1" parent="1" source="3AsRj3uWKRMm-9bM_vsM-13" target="3AsRj3uWKRMm-9bM_vsM-5">
                    <mxGeometry relative="1" as="geometry"/>
                </mxCell>
                <mxCell id="3AsRj3uWKRMm-9bM_vsM-12" style="edgeStyle=orthogonalEdgeStyle;rounded=0;orthogonalLoop=1;jettySize=auto;html=1;entryX=1;entryY=0.5;entryDx=0;entryDy=0;fontSize=12;" edge="1" parent="1" source="3AsRj3uWKRMm-9bM_vsM-13" target="3AsRj3uWKRMm-9bM_vsM-16">
                    <mxGeometry relative="1" as="geometry"/>
                </mxCell>
                <mxCell id="3AsRj3uWKRMm-9bM_vsM-13" value="&lt;font style=&quot;font-size: 12px;&quot;&gt;libcltk&lt;/font&gt;" style="rounded=0;whiteSpace=wrap;html=1;strokeWidth=1;fontSize=10;fillColor=#fff2cc;strokeColor=#d6b656;" vertex="1" parent="1">
                    <mxGeometry x="1740" y="400" width="120" height="60" as="geometry"/>
                </mxCell>
                <mxCell id="3AsRj3uWKRMm-9bM_vsM-14" style="edgeStyle=orthogonalEdgeStyle;rounded=0;orthogonalLoop=1;jettySize=auto;html=1;entryX=1;entryY=0.5;entryDx=0;entryDy=0;fontSize=12;fillColor=#fff2cc;strokeColor=#d6b656;" edge="1" parent="1" source="3AsRj3uWKRMm-9bM_vsM-15" target="3AsRj3uWKRMm-9bM_vsM-13">
                    <mxGeometry relative="1" as="geometry"/>
                </mxCell>
                <mxCell id="3AsRj3uWKRMm-9bM_vsM-15" value="&lt;font style=&quot;font-size: 12px;&quot;&gt;appl&lt;/font&gt;" style="rounded=0;whiteSpace=wrap;html=1;strokeWidth=1;fontSize=10;fillColor=#fff2cc;strokeColor=#d6b656;" vertex="1" parent="1">
                    <mxGeometry x="1910" y="400" width="120" height="60" as="geometry"/>
                </mxCell>
                <mxCell id="3AsRj3uWKRMm-9bM_vsM-16" value="..." style="rounded=0;whiteSpace=wrap;html=1;fillColor=#dae8fc;strokeColor=#6c8ebf;" vertex="1" parent="1">
                    <mxGeometry x="1500" y="580" width="120" height="60" as="geometry"/>
                </mxCell>
                <mxCell id="3AsRj3uWKRMm-9bM_vsM-17" value="/tmp/traces" style="ellipse;shape=cloud;whiteSpace=wrap;html=1;strokeWidth=1;fontSize=12;fillColor=#dae8fc;strokeColor=#6c8ebf;" vertex="1" parent="1">
                    <mxGeometry x="1220" y="420" width="120" height="80" as="geometry"/>
                </mxCell>
                <mxCell id="Xisc_BWAESLVPhXZNZAD-1" value="&lt;font style=&quot;font-size: 12px;&quot;&gt;APPLICATION&lt;/font&gt;" style="rounded=0;whiteSpace=wrap;html=1;strokeWidth=1;fontSize=10;fillColor=#fff2cc;strokeColor=#d6b656;" vertex="1" parent="1">
                    <mxGeometry x="1420" y="90" width="220" height="60" as="geometry"/>
                </mxCell>
                <mxCell id="Xisc_BWAESLVPhXZNZAD-2" value="FILESYSTEM" style="rounded=0;whiteSpace=wrap;html=1;fillColor=#dae8fc;strokeColor=#6c8ebf;" vertex="1" parent="1">
                    <mxGeometry x="1420" y="150" width="220" height="60" as="geometry"/>
                </mxCell>
            </root>
        </mxGraphModel>
    </diagram>
</mxfile>